HIERARCHY
ROOT Hips
{
 OFFSET 0.000000 0.000000 0.000000
 CHANNELS 6 Xposition Yposition Zposition Yrotation Xrotation Zrotation
 JOINT Chest
 {
  OFFSET 0.000000 9.585900 0.002600
  CHANNELS 3 Yrotation Xrotation Zrotation
  JOINT Chest2
  {
   OFFSET 0.000000 9.601200 -0.005300
   CHANNELS 3 Yrotation Xrotation Zrotation
   JOINT Chest3
   {
    OFFSET 0.000000 9.561800 0.000000
    CHANNELS 3 Yrotation Xrotation Zrotation
    JOINT Chest4
    {
     OFFSET 0.000000 9.552100 0.000000
     CHANNELS 3 Yrotation Xrotation Zrotation
     JOINT Neck
     {
      OFFSET 0.000000 14.453000 0.000000
      CHANNELS 3 Yrotation Xrotation Zrotation
      JOINT Head
      {
       OFFSET 0.000000 8.936500 -0.011300
       CHANNELS 3 Yrotation Xrotation Zrotation
       End Site
       {
        OFFSET 0.000000 17.073600 -0.006000
       }
      }
     }
     JOINT RightCollar
     {
      OFFSET -2.921100 9.558500 0.000000
      CHANNELS 3 Yrotation Xrotation Zrotation
      JOINT RightShoulder
      {
       OFFSET -13.519700 0.000000 0.000000
       CHANNELS 3 Yrotation Xrotation Zrotation
       JOINT RightElbow
       {
        OFFSET 0.000000 -29.696600 0.000000
        CHANNELS 3 Yrotation Xrotation Zrotation
        JOINT RightWrist
        {
         OFFSET 0.000000 -24.004700 0.000000
         CHANNELS 3 Yrotation Xrotation Zrotation
         End Site
         {
          OFFSET 0.000000 -17.728500 0.000000
         }
        }
       }
      }
     }
     JOINT LeftCollar
     {
      OFFSET 2.921100 9.558500 0.000000
      CHANNELS 3 Yrotation Xrotation Zrotation
      JOINT LeftShoulder
      {
       OFFSET 13.519700 0.000000 0.000000
       CHANNELS 3 Yrotation Xrotation Zrotation
       JOINT LeftElbow
       {
        OFFSET 0.000000 -29.696600 0.000000
        CHANNELS 3 Yrotation Xrotation Zrotation
        JOINT LeftWrist
        {
         OFFSET 0.000000 -24.004700 0.000000
         CHANNELS 3 Yrotation Xrotation Zrotation
         End Site
         {
          OFFSET 0.000000 -17.728500 0.000000
         }
        }
       }
      }
     }
    }
   }
  }
 }
 JOINT RightHip
 {
  OFFSET -7.771700 -0.012900 -0.001300
  CHANNELS 3 Yrotation Xrotation Zrotation
  JOINT RightKnee
  {
   OFFSET 0.000000 -40.869800 0.001200
   CHANNELS 3 Yrotation Xrotation Zrotation
   JOINT RightAnkle
   {
    OFFSET 0.000000 -39.717900 0.002100
    CHANNELS 3 Yrotation Xrotation Zrotation
    JOINT RightToe
    {
     OFFSET 0.000000 -4.965400 11.033500
     CHANNELS 3 Yrotation Xrotation Zrotation
     End Site
     {
      OFFSET 0.000000 -1.423100 5.872300
     }
    }
   }
  }
 }
 JOINT LeftHip
 {
  OFFSET 7.771700 -0.012900 -0.001300
  CHANNELS 3 Yrotation Xrotation Zrotation
  JOINT LeftKnee
  {
   OFFSET 0.000000 -40.869800 0.001200
   CHANNELS 3 Yrotation Xrotation Zrotation
   JOINT LeftAnkle
   {
    OFFSET 0.000000 -39.717900 0.002100
    CHANNELS 3 Yrotation Xrotation Zrotation
    JOINT LeftToe
    {
     OFFSET 0.000000 -4.965400 11.033500
     CHANNELS 3 Yrotation Xrotation Zrotation
     End Site
     {
      OFFSET 0.000000 -1.423100 5.872300
     }
    }
   }
  }
 }
}
MOTION
Frames: 8
Frame Time: 0.008333
-228.483989 57.750062 -77.647457 158.962032 -7.764057 0.725404 2.693517 6.976964 0.912463 0.115690 0.303548 -0.000746 0.190842 0.552002 0.016607 2.401169 6.620905 0.246752 2.175414 18.923980 -1.082643 4.339292 -0.594016 -2.681107 2.826242 8.279114 1.610366 -3.508210 -8.741727 -10.522400 -88.207100 -85.948775 112.052077 -2.824808 1.139741 -27.324715 -5.349698 8.378628 -2.485648 19.240943 -5.735526 -0.308365 150.664397 -81.480286 -175.663233 -1.242866 4.901111 15.827658 -18.625863 -63.862355 10.321739 -34.663246 71.949261 -35.345009 -3.519997 -7.737756 -2.538712 -0.151102 0.728990 -0.065435 3.233445 -66.461430 15.387635 43.519841 65.761466 36.250258 -17.756644 -10.759606 3.383559 -0.312854 -0.861535 -0.137006
-228.488247 57.750034 -77.649226 158.963376 -7.762109 0.721540 2.703525 6.962180 0.905019 0.107692 0.312668 0.008623 0.191419 0.547334 0.012960 2.411098 6.619391 0.247293 2.175615 18.934856 -1.082246 4.341978 -0.573031 -2.682468 2.817332 8.277311 1.612771 -3.510491 -8.741663 -10.518586 -88.350457 -85.954929 112.169619 -2.828005 1.142944 -27.309776 -5.358023 8.387033 -2.481504 19.263297 -5.740384 -0.318672 150.806110 -81.454300 -175.718615 -1.238823 4.902651 15.833283 -18.634441 -63.860317 10.327041 -34.656513 71.947547 -35.338237 -3.514832 -7.742273 -2.540114 -0.149238 0.733244 -0.064110 3.246622 -66.465377 15.378752 43.526541 65.765138 36.244812 -17.740521 -10.767077 3.406724 -0.348016 -0.867553 -0.146912
-228.492881 57.750042 -77.650714 158.966473 -7.756931 0.720622 2.709330 6.953128 0.899868 0.103415 0.313626 0.012392 0.196222 0.544250 0.010102 2.406130 6.622675 0.251371 2.184677 18.938215 -1.089050 4.342965 -0.554663 -2.681102 2.828201 8.262743 1.612255 -3.521649 -8.736057 -10.516903 -88.575002 -85.956504 112.372379 -2.830658 1.146760 -27.306326 -5.358506 8.386167 -2.481787 19.285604 -5.744266 -0.328721 150.940009 -81.432522 -175.771729 -1.234324 4.918176 15.783947 -18.636211 -63.865177 10.323897 -34.652563 71.948840 -35.332233 -3.516254 -7.742541 -2.539682 -0.144903 0.733792 -0.064064 3.281053 -66.472574 15.350825 43.501661 65.767033 36.228515 -17.775487 -10.767797 3.408974 -0.314416 -0.871248 -0.139403
-228.496471 57.750194 -77.652200 158.966689 -7.753242 0.716594 2.719807 6.945592 0.898260 0.113167 0.310212 0.005248 0.195496 0.544770 0.011506 2.413701 6.620901 0.254693 2.196693 18.949262 -1.096785 4.331073 -0.525140 -2.666829 2.806721 8.268105 1.624975 -3.518473 -8.745785 -10.519273 -88.540887 -85.958295 112.331930 -2.826680 1.136452 -27.314322 -5.363309 8.386189 -2.482517 19.330408 -5.748666 -0.347156 151.125480 -81.423324 -175.920836 -1.233521 4.905765 15.813097 -18.641229 -63.866929 10.328344 -34.661192 71.946094 -35.337336 -3.517676 -7.742083 -2.539905 -0.145541 0.733632 -0.064322 3.280358 -66.478492 15.354512 43.512506 65.768735 36.229534 -17.762793 -10.760757 3.418241 -0.318271 -0.883488 -0.139183
-228.498568 57.750622 -77.654444 158.966688 -7.756646 0.708507 2.732465 6.944338 0.901163 0.113570 0.310065 0.005107 0.198941 0.543291 0.009432 2.419143 6.617820 0.254621 2.195909 18.958823 -1.094637 4.329412 -0.509546 -2.661436 2.797174 8.266082 1.631708 -3.519743 -8.748601 -10.517547 -88.870963 -85.963030 112.653101 -2.822278 1.128538 -27.297954 -5.371120 8.392871 -2.478779 19.343315 -5.751445 -0.349213 151.248105 -81.400100 -175.969671 -1.235020 4.894211 15.839629 -18.646123 -63.859168 10.334960 -34.659344 71.945269 -35.334660 -3.518803 -7.743880 -2.535540 -0.163901 0.734966 -0.068107 3.301313 -66.478300 15.349816 43.504173 65.771843 36.222706 -17.781609 -10.758954 3.425131 -0.304203 -0.887044 -0.133624
-228.500400 57.751174 -77.656625 158.971716 -7.760429 0.700611 2.739627 6.942588 0.902333 0.113884 0.309915 0.004965 0.193987 0.545858 0.013471 2.451116 6.605563 0.236948 2.179765 18.973656 -1.076972 4.320556 -0.506627 -2.649322 2.774112 8.272921 1.648301 -3.523589 -8.754550 -10.511490 -88.890907 -85.959117 112.669122 -2.820524 1.132935 -27.295709 -5.399835 8.408144 -2.457391 19.383895 -5.756739 -0.369284 151.423256 -81.384675 -176.098520 -1.233311 4.894053 15.838615 -18.651346 -63.853604 10.337651 -34.664701 71.948517 -35.334116 -3.530493 -7.744798 -2.536526 -0.159766 0.731954 -0.066853 3.285900 -66.475196 15.363671 43.526195 65.767127 36.237024 -17.776398 -10.753765 3.428887 -0.311097 -0.893986 -0.132121
-228.504447 57.751772 -77.658975 158.974458 -7.761038 0.707699 2.746097 6.938612 0.888109 0.109133 0.311920 0.008798 0.195208 0.545355 0.013418 2.460226 6.602471 0.231750 2.178644 18.980830 -1.073930 4.320346 -0.491670 -2.644554 2.766786 8.272781 1.650100 -3.524262 -8.760184 -10.503524 -88.790432 -85.957006 112.564536 -2.814673 1.129263 -27.292169 -5.408478 8.412885 -2.449250 19.463734 -5.763104 -0.403486 151.638928 -81.376126 -176.311707 -1.228542 4.895805 15.836653 -18.626998 -63.855927 10.309596 -34.659942 71.951472 -35.323960 -3.551629 -7.750014 -2.534464 -0.148082 0.735106 -0.067159 3.325811 -66.474718 15.328607 43.530287 65.763532 36.238987 -17.794471 -10.738649 3.418905 -0.323531 -0.906955 -0.118419
-228.505892 57.752348 -77.659912 158.971947 -7.760402 0.699143 2.754570 6.935419 0.893734 0.108602 0.311625 0.008476 0.211977 0.539199 0.002156 2.455342 6.606250 0.240391 2.176801 18.986960 -1.072147 4.321515 -0.465490 -2.645852 2.761266 8.271722 1.650624 -3.523740 -8.766926 -10.494162 -88.884403 -85.962900 112.656132 -2.806583 1.133869 -27.289080 -5.400782 8.418679 -2.449164 19.483469 -5.768704 -0.408331 151.742873 -81.368859 -176.414496 -1.231781 4.885308 15.876696 -18.639351 -63.853347 10.326988 -34.646575 71.952782 -35.312589 -3.553854 -7.744322 -2.530466 -0.163744 0.729810 -0.070519 3.339468 -66.478095 15.332013 43.526630 65.764325 36.233862 -17.796819 -10.732452 3.418714 -0.339878 -0.909191 -0.115354
